<svg xmlns="http://www.w3.org/2000/svg" xmlns:xlink="http://www.w3.org/1999/xlink" viewBox="0 0 2560.25421 1208.98329"><defs><style>.cls-1{fill:none;}.cls-2{clip-path:url(#clip-path);}.cls-3{fill:url(#linear-gradient);}.cls-4{opacity:0.15;}.cls-5{fill:url(#linear-gradient-2);}.cls-6{fill:url(#linear-gradient-3);}.cls-7{opacity:0.8;}.cls-8{fill:#cea67a;opacity:0.7;}.cls-9{fill:#fff;}.cls-10{fill:url(#linear-gradient-4);}.cls-11{fill:url(#linear-gradient-5);}.cls-12{fill:url(#linear-gradient-6);}</style><clipPath id="clip-path"><rect class="cls-1" width="2560.25421" height="1206.66601"/></clipPath><linearGradient id="linear-gradient" x1="2374.44828" y1="-33.39049" x2="1462.44828" y2="646.60951" gradientUnits="userSpaceOnUse"><stop offset="0" stop-color="#ffe756"/><stop offset="1" stop-color="#f6f192"/></linearGradient><linearGradient id="linear-gradient-2" x1="1517.73365" y1="395.44597" x2="110.59293" y2="1391.54558" gradientUnits="userSpaceOnUse"><stop offset="0" stop-color="#f5fbff"/><stop offset="0.01662" stop-color="#f6fbff"/><stop offset="0.31607" stop-color="#fdfeff"/><stop offset="1" stop-color="#fff"/></linearGradient><linearGradient id="linear-gradient-3" x1="1262.49972" y1="515.82361" x2="221.39561" y2="1253.89741" gradientUnits="userSpaceOnUse"><stop offset="0" stop-color="#e1f2ff"/><stop offset="0.02395" stop-color="#e2f2ff"/><stop offset="0.48083" stop-color="#edf2ff"/><stop offset="1" stop-color="#f0f2ff"/></linearGradient><linearGradient id="linear-gradient-4" x1="959.25843" y1="501.98669" x2="290.19152" y2="1315.068" gradientUnits="userSpaceOnUse"><stop offset="0" stop-color="#d2eaff"/><stop offset="0.52057" stop-color="#dfecff"/><stop offset="1" stop-color="#e4edff"/></linearGradient><linearGradient id="linear-gradient-5" x1="568.68248" y1="701.02353" x2="48.68248" y2="1253.02353" gradientUnits="userSpaceOnUse"><stop offset="0" stop-color="#c2e2ff"/><stop offset="1" stop-color="#e3efff"/></linearGradient><linearGradient id="linear-gradient-6" x1="307.61043" y1="989.79139" x2="57.61043" y2="1253.79139" gradientUnits="userSpaceOnUse"><stop offset="0" stop-color="#b3dbff"/><stop offset="1" stop-color="#cedeff"/></linearGradient></defs><title>SVG banner </title><g id="Layer_2" data-name="Layer 2"><g id="Layer_1-2" data-name="Layer 1"><g id="BANNER"><g class="cls-2"><polygon class="cls-3" points="2560.254 1206.666 2228.725 1206.666 480.725 0 2560.254 0 2560.254 1206.666"/><path class="cls-4" d="M576.7252,267.49855,559.39027,0H730.92063s-7.76629,227.29843,328.887,300.42289,207.00835,206.86727,463.269,351.15247c184.77237,104.03439,280.85191,39.63047,428.22305,142.32871,198.99723,138.6748,170.51684,265.95422,290.0079,326s231.49107,86.99216,231.49107,86.99216L1848.7252,1099.49855Z"/><path class="cls-5" d="M.00027,1206.666,0,0H705.92063s-7.76629,227.29843,328.887,300.42289,207.00835,206.86727,463.269,351.15247c184.77237,104.03439,280.85191,39.63047,428.22305,142.32871,198.99723,138.6748,170.51684,265.95422,290.0079,326s231.49107,86.99216,231.49107,86.99216Z"/><path class="cls-6" d="M.00027,1206.666,0,0H535.92063s-7.76629,227.29843,328.887,300.42289,214.08653,185.995,451.66318,359.33009c139.72468,101.94263,292.4577,31.45285,439.82884,134.15109,198.99723,138.6748,170.51684,274,290.0079,356.11979,110.21187,75.74269,231.49107,56.87237,231.49107,56.87237Z"/><g class="cls-7"><path class="cls-8" d="M1784.92819,115.73773c4.6157-5.26263,24.42871-4.50826,9.07294-22.9167-14.50664-17.39048-23.117.472-30.53676.20262s-6.79135-15.85441-7.13162-17.94826c-1.15671-7.11773-7.12772-15.89318-13.15772-16.11212s-17.23715,6.15145-11.33922,19.10191,27.73721,44.18144,35.86359,44.4765S1780.86847,120.36644,1784.92819,115.73773Z"/><ellipse class="cls-8" cx="1807.17286" cy="116.44564" rx="6.5" ry="8.23894" transform="translate(404.48529 1261.82808) rotate(-42.92057)"/><ellipse class="cls-8" cx="1796.37741" cy="121.41452" rx="4.16667" ry="5.73141" transform="translate(398.21161 1255.80672) rotate(-42.92057)"/><ellipse class="cls-8" cx="1787.81932" cy="125.01297" rx="3.80089" ry="4.94351" transform="translate(393.47011 1250.94212) rotate(-42.92057)"/><ellipse class="cls-8" cx="1779.57322" cy="128.01557" rx="3.80089" ry="4.94351" transform="translate(389.21789 1246.13045) rotate(-42.92057)"/><ellipse class="cls-8" cx="1771.41329" cy="127.74007" rx="2.75545" ry="3.58379" transform="translate(387.22108 1240.49992) rotate(-42.92057)"/></g><g class="cls-7"><path class="cls-8" d="M2011.8621,283.1801c4.47378-5.38381,24.29986-5.15788,8.45881-23.15042-14.96507-16.99759-23.09623,1.0881-30.52051,1.01659s-7.21157-15.66773-7.60754-17.75177c-1.346-7.08436-7.54886-15.69752-13.58256-15.75563s-17.06705,6.60877-10.826,19.3974,28.90514,43.42633,37.03649,43.50465S2007.92723,287.91539,2011.8621,283.1801Z"/><ellipse class="cls-8" cx="2034.11774" cy="283.29476" rx="6.5" ry="8.23894" transform="translate(383.61141 1505.47305) rotate(-44.44813)"/><ellipse class="cls-8" cx="2023.45859" cy="288.54966" rx="4.16667" ry="5.73141" transform="translate(376.88185 1499.51234) rotate(-44.44813)"/><ellipse class="cls-8" cx="2014.99947" cy="292.37497" rx="3.80089" ry="4.94351" transform="translate(371.78284 1494.68321) rotate(-44.44813)"/><ellipse class="cls-8" cx="2006.83634" cy="295.59633" rx="3.80089" ry="4.94351" transform="translate(367.19145 1489.88854) rotate(-44.44813)"/><ellipse class="cls-8" cx="1998.67197" cy="295.53845" rx="2.75545" ry="3.58379" transform="translate(364.89602 1484.15477) rotate(-44.44813)"/></g><g class="cls-7"><path class="cls-8" d="M2167.11361,465.41047c4.72458-5.16511,24.51753-3.99721,9.54946-22.72226-14.14037-17.68958-23.12184-.01076-30.53433-.435s-6.45883-15.99276-6.75532-18.09326c-1.00784-7.14032-6.79431-16.03853-12.81843-16.38333s-17.36184,5.7902-11.73559,18.861,26.80867,44.75095,34.92712,45.21562S2162.95814,469.95341,2167.11361,465.41047Z"/><ellipse class="cls-8" cx="2189.33866" cy="466.58269" rx="6.5" ry="8.23894" transform="translate(244.77738 1575.44905) rotate(-41.72417)"/><ellipse class="cls-8" cx="2178.44181" cy="471.32508" rx="4.16667" ry="5.73141" transform="matrix(0.74636, -0.66555, 0.66555, 0.74636, 238.8572, 1569.39957)"/><ellipse class="cls-8" cx="2169.81046" cy="474.74406" rx="3.80089" ry="4.94351" transform="translate(234.39244 1564.52222) rotate(-41.72417)"/><ellipse class="cls-8" cx="2161.50345" cy="477.57383" rx="3.80089" ry="4.94351" transform="translate(230.40209 1559.71128) rotate(-41.72417)"/><ellipse class="cls-8" cx="2153.35106" cy="477.12801" rx="2.75545" ry="3.58379" transform="translate(228.63101 1554.17241) rotate(-41.72417)"/></g><g class="cls-7"><path class="cls-8" d="M2263.24431,707.38788c6.56-2.44258,23.643,7.622,18.85982-15.86821-4.51868-22.19129-20.5733-10.55269-26.97688-14.31023s1.54409-17.17849,2.238-19.1831c2.35888-6.81437,1.26638-17.37221-3.9378-20.426s-18.09208-2.76343-19.04479,11.43489,3.45388,52.05213,10.46733,56.16753S2257.47449,709.53623,2263.24431,707.38788Z"/><ellipse class="cls-8" cx="2282.48986" cy="718.56533" rx="6.5" ry="8.23894" transform="translate(-107.41671 598.38765) rotate(-14.59614)"/><ellipse class="cls-8" cx="2270.62934" cy="717.81726" rx="4.16667" ry="5.73141" transform="matrix(0.96773, -0.252, 0.252, 0.96773, -107.61098, 595.37461)"/><ellipse class="cls-8" cx="2261.38854" cy="716.92438" rx="3.80089" ry="4.94351" transform="translate(-107.68421 593.01707) rotate(-14.59614)"/><ellipse class="cls-8" cx="2252.70507" cy="715.65502" rx="3.80089" ry="4.94351" transform="translate(-107.64457 590.78784) rotate(-14.59614)"/><ellipse class="cls-8" cx="2245.6528" cy="711.54091" rx="2.75545" ry="3.58379" transform="translate(-106.8354 588.87786) rotate(-14.59614)"/></g><g class="cls-7"><path class="cls-8" d="M1944.83981,157.20335c-4.14367,5.6418.86477,24.82617-20.42151,13.80055-20.1092-10.41594-4.52328-22.67509-6.38609-29.86223s-16.94578-3.21329-19.06375-3.09412c-7.19971.40513-17.05615-3.53339-18.57006-9.37436s2.29032-18.158,16.20782-15.191,49.12265,17.559,51.16287,25.43064S1948.48435,152.24114,1944.83981,157.20335Z"/><ellipse class="cls-8" cx="1950.32718" cy="178.7722" rx="6.5" ry="8.23894" transform="translate(807.27437 1769.10735) rotate(-59.53057)"/><ellipse class="cls-8" cx="1952.85162" cy="167.15933" rx="4.16667" ry="5.73141" transform="translate(818.52785 1765.55893) rotate(-59.53057)"/><ellipse class="cls-8" cx="1954.52025" cy="158.02668" rx="3.80089" ry="4.94351" transform="translate(827.22178 1762.49544) rotate(-59.53057)"/><ellipse class="cls-8" cx="1955.67431" cy="149.32714" rx="3.80089" ry="4.94351" transform="translate(835.28878 1759.20193) rotate(-59.53057)"/><ellipse class="cls-8" cx="1953.64595" cy="141.41853" rx="2.75545" ry="3.58379" transform="matrix(0.50708, -0.8619, 0.8619, 0.50708, 841.10539, 1753.55537)"/></g><g class="cls-7"><path class="cls-8" d="M2145.00505,333.35224c-5.31628,4.55381-4.79381,24.37429-23.02129,8.80416-17.21955-14.70914.74249-23.10992.55993-30.5323s-15.77386-6.9764-17.86358-7.34115c-7.10371-1.23992-15.80869-7.31321-15.957-13.34536s6.35273-17.164,19.23328-11.11492,43.85386,28.25231,44.05381,36.38158S2149.681,329.347,2145.00505,333.35224Z"/><ellipse class="cls-8" cx="2145.45262" cy="355.60368" rx="6.5" ry="8.23894" transform="translate(408.59312 1664.3206) rotate(-46.40896)"/><ellipse class="cls-8" cx="2150.54748" cy="344.86711" rx="4.16667" ry="5.73141" transform="translate(417.95132 1664.67706) rotate(-46.40896)"/><ellipse class="cls-8" cx="2154.24582" cy="336.35172" rx="3.80089" ry="4.94351" transform="translate(425.26716 1664.71172) rotate(-46.40896)"/><ellipse class="cls-8" cx="2157.34471" cy="328.14131" rx="3.80089" ry="4.94351" transform="translate(432.17597 1664.40691) rotate(-46.40896)"/><ellipse class="cls-8" cx="2157.16472" cy="319.97871" rx="2.75545" ry="3.58379" transform="translate(438.03209 1661.7421) rotate(-46.40896)"/></g><g class="cls-7"><path class="cls-8" d="M2298.20452,558.28217c-5.73483,4.01394-7.14679,23.791-23.76983,6.51831-15.70382-16.31752,2.99152-22.92751,3.53331-30.33234s-15.01874-8.48069-17.063-9.04739c-6.949-1.92643-15.02057-8.81928-14.58026-14.83717s7.99549-16.46305,20.22509-9.18729,40.89123,32.3923,40.29785,40.50234S2303.24856,554.75174,2298.20452,558.28217Z"/><ellipse class="cls-8" cx="2296.48107" cy="580.47128" rx="6.5" ry="8.23894" transform="translate(179.04878 1642.19285) rotate(-40.81535)"/><ellipse class="cls-8" cx="2302.59818" cy="570.28244" rx="4.16667" ry="5.73141" transform="translate(187.196 1643.71342) rotate(-40.81535)"/><ellipse class="cls-8" cx="2307.10893" cy="562.16808" rx="3.80089" ry="4.94351" transform="translate(193.59666 1644.6885) rotate(-40.81535)"/><ellipse class="cls-8" cx="2310.99334" cy="554.29882" rx="3.80089" ry="4.94351" transform="translate(199.6848 1645.31379) rotate(-40.81535)"/><ellipse class="cls-8" cx="2311.60983" cy="546.15755" rx="2.75545" ry="3.58379" transform="translate(205.15604 1643.73695) rotate(-40.81535)"/></g><g class="cls-7"><path class="cls-8" d="M2350.62951,823.16783c-6.72618,1.93871-14.47139,20.19073-24.59941-1.537-9.568-20.52621,10.26055-20.72054,13.17289-27.55013s-11.45967-12.89033-13.2099-14.089c-5.94963-4.07454-11.35167-13.21125-8.98481-18.76164s12.8994-12.98327,22.111-2.13675,28.18633,43.89628,24.99663,51.3763S2356.54547,821.46264,2350.62951,823.16783Z"/><ellipse class="cls-8" cx="2341.80789" cy="843.60078" rx="6.5" ry="8.23894" transform="translate(-145.65101 934.56616) rotate(-21.90514)"/><ellipse class="cls-8" cx="2350.89691" cy="835.94433" rx="4.16667" ry="5.73141" transform="translate(-142.13841 937.40424) rotate(-21.90514)"/><ellipse class="cls-8" cx="2357.79395" cy="829.7298" rx="3.80089" ry="4.94351" transform="translate(-139.322 939.52865) rotate(-21.90514)"/><ellipse class="cls-8" cx="2364.01903" cy="823.54415" rx="3.80089" ry="4.94351" transform="translate(-136.56488 941.40446) rotate(-21.90514)"/><ellipse class="cls-8" cx="2367.24072" cy="816.04207" rx="2.75545" ry="3.58379" transform="translate(-133.53348 942.06475) rotate(-21.90514)"/></g><path class="cls-4" d="M2185.86863,888.98089l5.689,34.10345a2.22446,2.22446,0,0,0,2.52407,1.83384l34.1923-5.128a2.22446,2.22446,0,0,1,1.35606,4.17351l-30.67631,15.94909a2.22447,2.22447,0,0,0-.96411,2.96723l15.443,30.93417a2.22446,2.22446,0,0,1-3.5502,2.57937l-24.648-24.24636a2.22448,2.22448,0,0,0-3.11993,0l-24.648,24.24636a2.22447,2.22447,0,0,1-3.55021-2.57937l15.443-30.93417a2.22447,2.22447,0,0,0-.96411-2.96723l-30.67631-15.94909a2.22446,2.22446,0,0,1,1.35606-4.17351l34.1923,5.128a2.22446,2.22446,0,0,0,2.52407-1.83384l5.689-34.10345A2.22446,2.22446,0,0,1,2185.86863,888.98089Z"/><path class="cls-9" d="M2181.79186,891.48905l5.49,32.91025a2.14663,2.14663,0,0,0,2.43576,1.76969l32.996-4.94858a2.14663,2.14663,0,0,1,1.30861,4.02749l-29.603,15.39108a2.14664,2.14664,0,0,0-.93037,2.86341l14.9027,29.85186a2.14664,2.14664,0,0,1-3.426,2.48913l-23.78562-23.39805a2.14664,2.14664,0,0,0-3.01077,0l-23.78562,23.39805a2.14664,2.14664,0,0,1-3.426-2.48913l14.9027-29.85186a2.14663,2.14663,0,0,0-.93038-2.86341l-29.603-15.39108a2.14663,2.14663,0,0,1,1.30861-4.02749l32.996,4.94858a2.14663,2.14663,0,0,0,2.43576-1.76969l5.48994-32.91025A2.14664,2.14664,0,0,1,2181.79186,891.48905Z"/></g></g><path class="cls-10" d="M1554.72544,970.24464c-66.31122-52.53466-281.36474-51.63916-352.18213-97.92041-126.47522-82.65527-78.91876-164.27978-175.54406-222.3706C976.21879,619.42482,860.97459,601.58205,823.167,555.961c-45.46563-54.86132-31.77148-144.50781-82.74975-194.28857-48.50763-47.36817-167.21778-40.23291-220.09461-82.66846-44.90887-36.04053-38.69037-114.52588-74.52191-159.602C370.56944,24.76076,156.28715,88.03078,51.83232,26.29494L20.84764,0H0V1206.666h1751.7254C1639.72544,1144.90382,1635.59989,1034.31691,1554.72544,970.24464Z"/><path class="cls-11" d="M1003.496,1150.23927c-29.76147-24.5625-46.13519-55.90966-51.64007-94.06787-9.85041-68.28027-6.97065-132.34472-86.25647-150.41455-50.7038-11.55566-112.24494-5.08154-146.75025-52.09033-26.69653-36.37012-34.1842-83.8877-46.30017-126.30811-29.92822-104.7832-115.44946-125.6206-214.41876-133.28076-60.88312-4.71191-131.24457-22.69336-154.65955-79.08984-21.37677-51.48731,7.19757-111.606-6.467-165.6543C282.89012,293.51027,226.57658,257.728,170.43516,244.937,114.29374,232.1465,57.22569,236.41017.00028,230.02882v37.375L0,1206.666l851.35138.08594,253.374-.08594C1060.97367,1193.15236,1034.24345,1175.61574,1003.496,1150.23927Z"/><path class="cls-12" d="M543.7255,1028.90382c-65.69354-53.457-172.63366-48.24853-245.87078-81.8706-49.26581-22.61719-73.50483-119.20752-109.201-147.76465C152.45957,770.313,84.05882,763.90382,0,731.90382V1206.666H654.05882C590.05882,1168.90382,588.04081,1064.96535,543.7255,1028.90382Z"/></g></g></svg>