<svg xmlns="http://www.w3.org/2000/svg" viewBox="0 0 51.42188 51.42188"><defs><style>.cls-1{fill:#207DCC;}</style></defs><title>DCG FB</title><g id="Layer_2" data-name="Layer 2"><g id="Layer_1-2" data-name="Layer 1"><path class="cls-1" d="M51.42188,9.6416V41.78027a9.64458,9.64458,0,0,1-9.64258,9.64161h-6.293v-19.919h6.66211l1.0039-7.76758h-7.666v-4.9541c0-2.24316.60156-3.75,3.84961-3.75l4.084-.0332V8.06836a53.335,53.335,0,0,0-5.959-.30176c-5.92578,0-10.00977,3.61621-10.00977,10.24414v5.72461H20.75586v7.76758h6.69531v19.919H9.64063A9.64353,9.64353,0,0,1,0,41.78027V9.6416A9.64353,9.64353,0,0,1,9.64063,0H41.7793A9.64457,9.64457,0,0,1,51.42188,9.6416Z"/></g></g></svg>
