<svg xmlns="http://www.w3.org/2000/svg" viewBox="0 0 61.71094 61.71094"><defs><style>.cls-1{fill:#fff;}</style></defs><title>youtube icon</title><g id="Layer_2" data-name="Layer 2"><g id="Layer_1-2" data-name="Layer 1"><path class="cls-1" d="M61.71094,50.13965a11.57372,11.57372,0,0,1-11.5708,11.57129H11.5708A11.57372,11.57372,0,0,1,0,50.13965V11.57129A11.57372,11.57372,0,0,1,11.5708,0H50.14014a11.57372,11.57372,0,0,1,11.5708,11.57129ZM52.189,31.418A5.58743,5.58743,0,0,0,47.4082,27.0791a151.25466,151.25466,0,0,0-16.55273-.60254,150.89318,150.89318,0,0,0-16.5127.60254A5.50049,5.50049,0,0,0,9.562,31.418,47.64973,47.64973,0,0,0,8.7583,41.86426,45.63342,45.63342,0,0,0,9.562,52.30957a5.59661,5.59661,0,0,0,4.74072,4.33887,151.99089,151.99089,0,0,0,16.55274.60254,151.99071,151.99071,0,0,0,16.55273-.60254,5.59662,5.59662,0,0,0,4.74073-4.33887,45.63342,45.63342,0,0,0,.80371-10.44531A47.60676,47.60676,0,0,0,52.189,31.418ZM21.374,34.43164H18.15967V51.42578H15.18652V34.43164H12.05273v-2.8125H21.374ZM26.23535,3.81641H23.22217l-2.04932,7.835-2.12939-7.835H15.90967c.603,1.84863,1.28564,3.69629,1.88867,5.54492A51.77978,51.77978,0,0,1,19.64648,15.709v8.0752h2.97266V15.709Zm3.21387,47.60937h-2.6919V49.81836A4.24655,4.24655,0,0,1,23.7041,51.627a1.59594,1.59594,0,0,1-1.6875-1.125,6.78962,6.78962,0,0,1-.24121-2.16992V36.68066h2.65186V47.52832a5.24151,5.24151,0,0,0,.04,1.04492q.06078.60206.603.60254c.562,0,1.08448-.40137,1.687-1.24512v-11.25h2.6919Zm4.78125-37.68555a5.89723,5.89723,0,0,0-.84375-3.49511,3.73825,3.73825,0,0,0-3.13379-1.52637,3.63735,3.63735,0,0,0-3.13379,1.52637,5.89723,5.89723,0,0,0-.84375,3.49511v5.22266a5.89858,5.89858,0,0,0,.84375,3.49609,3.63971,3.63971,0,0,0,3.13379,1.52637A3.74078,3.74078,0,0,0,33.38672,22.459a5.81534,5.81534,0,0,0,.84375-3.49609Zm-2.6919,5.74512c0,1.36621-.44189,2.04883-1.28564,2.04883-.88379,0-1.28564-.68262-1.28564-2.04883V13.21777c0-1.36621.40185-2.08886,1.28564-2.08886.84375,0,1.28564.72265,1.28564,2.08886Zm8.03516,27.52149a10.47658,10.47658,0,0,1-.28125,2.93261,2.06783,2.06783,0,0,1-2.12939,1.6875,3.70066,3.70066,0,0,1-2.73194-1.64746v1.44629H31.73926V31.61914h2.69189v6.46777a3.63225,3.63225,0,0,1,2.73194-1.60644,2.06783,2.06783,0,0,1,2.12939,1.6875,10.42818,10.42818,0,0,1,.28125,2.97266Zm-2.65185-6.10743c0-1.32519-.40137-2.00878-1.165-2.00878a1.87974,1.87974,0,0,0-1.32569.64257v9a1.87971,1.87971,0,0,0,1.32569.64258c.76367,0,1.165-.64258,1.165-1.96875Zm7.272-17.11523V8.919H41.50244V20.28906c-.603.84375-1.16553,1.24512-1.6875,1.24512-.36181,0-.603-.2002-.64306-.64258a4.97436,4.97436,0,0,1-.04-1.04492V8.919h-2.6919V20.69043a7.25838,7.25838,0,0,0,.24121,2.21,1.69071,1.69071,0,0,0,1.72754,1.085,4.389,4.389,0,0,0,3.09375-1.80762v1.60645ZM49.6582,46.68457a13.65784,13.65784,0,0,1-.08056,1.72754,3.71613,3.71613,0,0,1-.60254,1.60742A3.65714,3.65714,0,0,1,45.76074,51.627a3.85937,3.85937,0,0,1-3.2539-1.52734,5.67314,5.67314,0,0,1-.84375-3.45508V41.46191a5.78015,5.78015,0,0,1,.80322-3.45507,3.83851,3.83851,0,0,1,3.21435-1.52637,3.68959,3.68959,0,0,1,3.13379,1.52637,5.759,5.759,0,0,1,.84375,3.45507v3.05372H44.31445V47.127c0,1.36621.4419,2.04883,1.36621,2.04883a1.1739,1.1739,0,0,0,1.20508-1.04492c0-.16016.04-.7627.04-1.80762H49.6582Zm-2.69189-4.37891V40.93945q0-2.04785-1.32568-2.04882-1.32642,0-1.32618,2.04882v1.36621Z"/></g></g></svg>