<svg xmlns="http://www.w3.org/2000/svg" viewBox="0 0 51.42188 51.42188"><defs><style>.cls-1{fill:#207DCC;}</style></defs><title>SCG LINKED IN</title><g id="Layer_2" data-name="Layer 2"><g id="Layer_1-2" data-name="Layer 1"><path class="cls-1" d="M51.42188,41.78027a9.64458,9.64458,0,0,1-9.64258,9.64161H9.64063A9.64353,9.64353,0,0,1,0,41.78027V9.6416A9.64353,9.64353,0,0,1,9.64063,0H41.7793a9.64457,9.64457,0,0,1,9.64258,9.6416ZM11.85059,8.6377A4.02907,4.02907,0,1,0,11.75,16.67188h.0332a4.03018,4.03018,0,1,0,.06739-8.03418Zm3.8164,34.415V19.81836H7.93359V43.05273Zm27.82031,0V29.72852c0-7.13086-3.8164-10.44532-8.90527-10.44532a7.633,7.633,0,0,0-6.99707,3.917h.06738V19.81836H19.919s.10058,2.17676,0,23.23437h7.73339V30.06348a5.42335,5.42335,0,0,1,.23438-1.875,4.26713,4.26713,0,0,1,3.9834-2.8125c2.77832,0,3.88379,2.10937,3.88379,5.25586V43.05273Z"/></g></g></svg>