<svg xmlns="http://www.w3.org/2000/svg" viewBox="0 0 51.42188 51.42188"><defs><style>.cls-1{fill:#207DCC;}</style></defs><title>DCG TWITTER</title><g id="Layer_2" data-name="Layer 2"><g id="Layer_1-2" data-name="Layer 1"><path class="cls-1" d="M51.42188,41.78027a9.64458,9.64458,0,0,1-9.64258,9.64161H9.64063A9.64353,9.64353,0,0,1,0,41.78027V9.6416A9.64353,9.64353,0,0,1,9.64063,0H41.7793a9.64457,9.64457,0,0,1,9.64258,9.6416ZM38.80078,17.27441a7.10936,7.10936,0,0,0,3.11328-3.917,14.0062,14.0062,0,0,1-4.48633,1.708,7.03343,7.03343,0,0,0-12.15234,4.82031,6.40258,6.40258,0,0,0,.167,1.60742,19.97682,19.97682,0,0,1-14.52929-7.36523,7.13271,7.13271,0,0,0-.97071,3.54785,6.925,6.925,0,0,0,3.0459,5.85938,8.42528,8.42528,0,0,1-3.34765-.8711v.06739a7.16018,7.16018,0,0,0,5.792,6.89648,5.88184,5.88184,0,0,1-1.707.26758,8.57924,8.57924,0,0,1-1.30567-.13379,7.07293,7.07293,0,0,0,6.56153,4.88769,14.157,14.157,0,0,1-8.73731,3.0127,13.72762,13.72762,0,0,1-1.67383-.09961A20.03892,20.03892,0,0,0,19.34961,40.709c12.92187,0,20.01953-10.71289,20.01953-20.01953a8.23306,8.23306,0,0,0-.0332-.90429,13.51308,13.51308,0,0,0,3.51562-3.64844A14.875,14.875,0,0,1,38.80078,17.27441Z"/></g></g></svg>