<?xml version="1.0" encoding="utf-8"?>
<!-- Generator: Adobe Illustrator 22.0.1, SVG Export Plug-In . SVG Version: 6.00 Build 0)  -->
<svg version="1.1" id="Layer_1" xmlns="http://www.w3.org/2000/svg" xmlns:xlink="http://www.w3.org/1999/xlink" x="0px" y="0px"
	 viewBox="0 0 294.7 72.5" style="enable-background:new 0 0 294.7 72.5;" xml:space="preserve">
<style type="text/css">
	.st0{fill:#2F2822;}
	.st1{fill:#DDDDDD;}
	.st2{fill:#FFFFFF;}
	.st3{fill:#F0AC21;}
</style>
<title>DCG LOGO SMALL</title>
<g id="Layer_2_1_">
	<g id="Layer_1-2">
		<rect x="3.1" y="3.1" class="st0" width="288.4" height="44.4"/>
		<path class="st1" d="M288.4,6.3v38.1H6.3V6.3H288.4 M294.7,0H0v50.7h294.7V0z"/>
		<path class="st2" d="M54.2,33.2h-8v-4.1h1.3v-8.9h-1.3v-4.1h8.2c1.5,0,3.1,0.1,4.6,0.3c1.2,0.2,2.3,0.7,3.4,1.4
			c1.1,0.7,1.9,1.8,2.5,2.9c0.3,0.6,0.5,1.2,0.7,1.9c0.2,0.7,0.2,1.4,0.2,2.1c0,1.4-0.3,2.8-0.9,4.1c-0.5,1.1-1.4,2.1-2.4,2.8
			c-0.9,0.6-2,1.1-3.1,1.3C57.7,33.1,55.9,33.2,54.2,33.2z M54.2,20.2v8.9h0.6c1.6,0,2.6-0.4,3-1.2c0.5-1,0.7-2,0.7-3.1
			c0-0.8-0.1-1.5-0.3-2.2c-0.2-0.7-0.5-1.3-1.1-1.7c-0.8-0.5-1.8-0.7-2.7-0.6L54.2,20.2z"/>
		<path class="st2" d="M77.4,33.2h-9.3v-4.1h1.4v-8.9h-1.4v-4.1h9.3c0.8,0,1.6,0,2.3,0c0.7,0,1.3,0.1,1.8,0.1c0.5,0,0.9,0.1,1.4,0.2
			c1.1,0.2,2.2,0.8,2.9,1.7c0.7,0.8,1.1,1.9,1.1,3.1c0,0.9-0.2,1.7-0.7,2.4c-0.4,0.7-1.1,1.2-1.8,1.6l2.4,3.9h1.2v4.1H82l-3.7-7
			h-2.1v2.9h1.3L77.4,33.2z M76.1,19.8v3.3h0.7c0.7,0,1.3,0,2-0.1c0.4-0.1,0.7-0.2,0.9-0.5c0.3-0.3,0.4-0.7,0.4-1
			c0-0.4-0.1-0.8-0.4-1.1c-0.3-0.3-0.6-0.4-1-0.5c-0.7-0.1-1.4-0.1-2.1-0.1L76.1,19.8z"/>
		<path class="st2" d="M90.1,20.2h-1.3v-4.1h8.8v4.1h-0.8v5.8c-0.1,1,0.1,1.9,0.4,2.8c0.3,0.5,0.8,0.8,1.4,0.7c0.5,0,1-0.2,1.2-0.6
			c0.3-0.8,0.5-1.7,0.4-2.5v-6.2h-0.9v-4.1h6.4v4.1h-1.4v6.2c0,1.3-0.2,2.7-0.7,3.9c-0.5,1-1.3,1.8-2.3,2.3
			c-1.2,0.6-2.6,0.9-3.9,0.8c-1.1,0-2.3-0.1-3.3-0.5c-0.9-0.2-1.7-0.7-2.3-1.4c-0.6-0.6-1-1.4-1.3-2.2c-0.3-1.2-0.5-2.5-0.4-3.8
			L90.1,20.2z"/>
		<path class="st2" d="M117.5,33.2h-10v-4.1h1.7v-8.9h-1.7v-4.1H118c1.8-0.1,3.6,0.1,5.3,0.7c1,0.4,1.9,1.1,2.5,1.9
			c0.5,0.8,0.8,1.7,0.8,2.7c0,1.1-0.3,2.1-0.9,3c-0.6,0.8-1.5,1.4-2.5,1.7c-1.5,0.4-3.1,0.6-4.7,0.5h-2.7v2.4h1.7V33.2z M115.8,19.8
			V23h1.3c0.7,0,1.3-0.1,2-0.3c0.4-0.3,0.7-0.7,0.6-1.2c0-0.4-0.1-0.7-0.3-1c-0.2-0.3-0.5-0.5-0.8-0.5c-0.6-0.1-1.1-0.1-1.7-0.1
			L115.8,19.8z"/>
		<path class="st2" d="M132.5,33.2h-6.8v-4.1h1.3l3.2-8.9h-1.4v-4.1h12.3v4.1h-1.4l3.3,8.9h1.3v4.1h-8.9v-3.8h1.5l-0.7-2.2h-4.4
			l-0.8,2.2h1.4L132.5,33.2z M134.1,20.4l-1.6,4.7h3.1L134.1,20.4z"/>
		<path class="st2" d="M161.8,33.2h-16.3v-4.1h1.5v-8.9h-1.5v-4.1h9.8v4.1h-1.6v8.9h4v-2.7h4.1L161.8,33.2z"/>
		<path class="st2" d="M176.9,25.6l4.4,1.6c-0.3,1.7-1.2,3.3-2.6,4.5c-1.6,1.3-3.6,1.9-5.7,1.8c-3.3,0-5.7-0.9-7.3-2.6
			c-1.6-1.7-2.4-3.9-2.4-6.2c-0.1-2.3,0.8-4.6,2.3-6.3c2.9-3,7.5-3.5,10.9-1.1v-1.1h4.1v6.2h-4.3c-0.2-0.7-0.6-1.4-1.1-1.8
			c-0.5-0.4-1.1-0.7-1.8-0.7c-1.9,0-2.8,1.6-2.8,4.8c0,3.2,1,4.8,2.9,4.8C175.4,29.4,176.5,28.1,176.9,25.6z"/>
		<path class="st2" d="M188.9,33.2h-6.8v-4.1h1.3l3.2-8.9h-1.4v-4.1h12.3v4.1h-1.4l3.3,8.9h1.3v4.1h-8.9v-3.8h1.5l-0.7-2.2h-4.4
			l-0.8,2.2h1.4V33.2z M190.6,20.4l-1.6,4.7h3.1L190.6,20.4z"/>
		<path class="st2" d="M208.7,33.2h-6.6v-4.1h1.3v-8.9h-1.4v-4.1h10.3l2.5,6.6l2.6-6.6h10.3v4.1h-1.3v8.9h1.4v4.1h-8.9v-4.1h1.4
			v-9.6l-5.2,13.7h-2.6l-5.1-13.5v9.4h1.4L208.7,33.2z"/>
		<path class="st2" d="M239.9,33.2h-10v-4.1h1.7v-8.9h-1.7v-4.1h10.5c1.8-0.1,3.6,0.1,5.3,0.7c1,0.4,1.9,1.1,2.5,1.9
			c0.5,0.8,0.8,1.7,0.8,2.7c0,1.1-0.3,2.1-0.9,3c-0.6,0.8-1.5,1.4-2.5,1.7c-1.5,0.4-3.1,0.6-4.7,0.5h-2.7v2.4h1.7L239.9,33.2z
			 M238.2,19.8V23h1.3c0.7,0,1.3-0.1,2-0.3c0.4-0.3,0.7-0.7,0.6-1.2c0-0.4-0.1-0.7-0.3-1c-0.2-0.3-0.5-0.5-0.8-0.5
			c-0.6-0.1-1.1-0.1-1.7-0.1L238.2,19.8z"/>
		<path class="st2" d="M134.8,47.7l-6.7,14.9c-2.7,6.1-6.3,9.9-14.5,9.9c-4.7,0-6.4-2.7-6-5.5c0.7-3.3,3.7-5.5,7-5.4
			c2,0,4.9,0.1,4.4,2.7c-0.1,0.6-0.3,1.1-0.6,1.6c-0.8-0.7-1.8-1.1-2.8-1c-1.9-0.1-3.6,1.2-4,3c-0.2,1.4,0.6,2.7,2.7,2.7
			c2.2,0,4-0.8,5.8-4.9l3.3-7.1c-2,0.8-4.2,1.3-6.3,1.4c-8.1,0-9.9-4.7-8.9-10.1c1.3-7.6,9.2-15.2,20.4-15.2c4.6,0,9,1.5,8.3,5.3
			c-0.4,2.1-1.6,3.6-4.1,3.6c-1.2,0.1-2.3-0.3-3.3-1c1.3-0.3,2.6-2.3,2.8-3.2c0.1-0.6,0.2-2.8-2.9-2.8c-5.5,0-12.4,7.4-13.5,13.7
			c-0.6,3.5,0.5,6.5,4.6,6.5c1.6,0.1,3.2-0.4,4.5-1.5l3.5-7.5L134.8,47.7z"/>
		<path class="st2" d="M156.8,49.9c0.4,0.3,0.9,0.4,1.4,0.4c2.3,0,3.6-1.3,5.6-1.9l0.1,0.8c-2.2,1.7-4.9,2.9-7.6,3.5
			c-2.4,8-8.5,11.9-13.5,11.9c-5.3,0-7.3-1.8-6.5-6.5c1.7-9.7,8.7-13.9,15.6-13.9C156.5,44.1,157.2,47,156.8,49.9z M152.4,53
			c-1.4,0-1.9-0.8-1.8-1.8c0.3-1.3,1.4-2.4,2.7-2.8c0.1-1.3-0.3-2.1-1.7-2.1c-4.7,0-8.1,8.1-8.7,11.2c-0.4,2.4,0.9,3,2.8,3
			C148.7,60.7,151.1,56.9,152.4,53L152.4,53z"/>
		<path class="st2" d="M178.7,57.9c-0.2,0.4-0.4,0.9-0.5,1.3c-0.1,0.8,0.1,1.5,1.5,1.5c0.4,0,0.9,0,1.3-0.1c-2,3.4-4.1,3.6-5.8,3.6
			c-2.9,0-4.2-1.2-4.4-3c-2,2-4.6,3.1-7.4,3.2c-4.8,0-5.7-2.7-5.3-5c1.2-6.8,5.7-15,15.7-15c1.1,0,2.2,0.3,3.2,1l0.5-1h7.1
			L178.7,57.9z M176.3,47.5c-0.7-0.5-1.5-0.7-2.3-0.7c-3.7,0-7.8,6.3-8.8,11.7c-0.4,2.4,1.1,2.8,2.4,2.8c1.1,0,2.4-0.9,3.6-2
			c0.1-0.4,0.3-0.9,0.5-1.3L176.3,47.5z"/>
		<path class="st3" d="M137.3,45.8l-6.7,14.9c-2.7,6.1-6.3,9.9-14.5,9.9c-4.7,0-6.4-2.7-6-5.5c0.7-3.3,3.7-5.5,7-5.4
			c2,0,4.9,0.1,4.4,2.7c-0.1,0.6-0.3,1.1-0.6,1.6c-0.8-0.7-1.8-1.1-2.8-1c-1.9-0.1-3.6,1.2-4,3c-0.2,1.4,0.6,2.7,2.7,2.7
			c2.2,0,4-0.8,5.8-4.9l3.3-7.1c-2,0.8-4.2,1.3-6.3,1.4c-8.1,0-9.9-4.7-8.9-10.1c1.3-7.6,9.2-15.2,20.4-15.2c4.6,0,9,1.5,8.3,5.3
			c-0.4,2.1-1.6,3.6-4.1,3.6c-1.2,0.1-2.3-0.3-3.3-1c1.3-0.3,2.6-2.3,2.8-3.2c0.1-0.6,0.2-2.8-2.9-2.8c-5.5,0-12.4,7.4-13.5,13.7
			c-0.6,3.5,0.5,6.5,4.6,6.5c1.6,0.1,3.2-0.4,4.5-1.5l3.5-7.5L137.3,45.8z"/>
		<path class="st3" d="M159.3,48c0.4,0.3,0.9,0.4,1.4,0.4c2.3,0,3.6-1.3,5.6-1.9l0.1,0.8c-2.2,1.7-4.9,2.9-7.6,3.5
			c-2.4,8-8.5,11.9-13.5,11.9c-5.3,0-7.3-1.8-6.5-6.5c1.7-9.7,8.7-13.9,15.6-13.9C159,42.2,159.7,45.1,159.3,48z M154.9,51.2
			c-1.4,0-1.9-0.8-1.8-1.8c0.3-1.3,1.4-2.4,2.7-2.8c0.1-1.3-0.3-2.1-1.7-2.1c-4.7,0-8.1,8.1-8.7,11.2c-0.4,2.4,0.9,3,2.8,3
			C151.3,58.8,153.6,55,154.9,51.2L154.9,51.2z"/>
		<path class="st3" d="M181.3,56.1c-0.2,0.4-0.4,0.9-0.5,1.3c-0.1,0.8,0.1,1.5,1.5,1.5c0.4,0,0.9,0,1.3-0.1c-2,3.4-4.1,3.6-5.8,3.6
			c-2.9,0-4.2-1.2-4.4-3c-2,2-4.6,3.1-7.4,3.2c-4.8,0-5.7-2.7-5.3-5c1.2-6.8,5.7-15,15.7-15c1.1,0,2.2,0.3,3.2,1l0.5-1h7.1
			L181.3,56.1z M178.8,45.6c-0.7-0.5-1.5-0.7-2.3-0.7c-3.7,0-7.8,6.3-8.8,11.7c-0.4,2.4,1.1,2.8,2.4,2.8c1.1,0,2.4-0.9,3.6-2
			c0.1-0.4,0.3-0.9,0.5-1.3L178.8,45.6z"/>
		<polygon class="st2" points="24.6,14.4 26.8,21.3 34.1,21.3 28.2,25.5 30.5,32.4 24.6,28.2 18.7,32.4 21,25.5 15.1,21.3 
			22.4,21.3 		"/>
		<polygon class="st2" points="270.1,14.4 272.4,21.3 279.6,21.3 273.8,25.5 276,32.4 270.1,28.2 264.3,32.4 266.5,25.5 260.7,21.3 
			267.9,21.3 		"/>
	</g>
</g>
</svg>
